<?xml version="1.0" encoding="utf-8"?>
<!-- Generator: Adobe Illustrator 19.0.0, SVG Export Plug-In . SVG Version: 6.00 Build 0)  -->
<svg version="1.1" id="Camada_1" xmlns="http://www.w3.org/2000/svg" xmlns:xlink="http://www.w3.org/1999/xlink" x="0px" y="0px"
	 viewBox="0 0 971.5 399.3" style="enable-background:new 0 0 971.5 399.3;" xml:space="preserve">
<g id="XMLID_2_">
	<g id="XMLID_3_">
		<path id="XMLID_135_" d="M1.1,16.6c12-2,27.7-3.7,47.7-3.7c24.6,0,42.5,5.7,54,16c10.6,9.1,16.8,23.1,16.8,40.3
			c0,17.4-5.1,31.1-14.8,41.1c-13.1,14-34.5,21.1-58.8,21.1c-7.4,0-14.3-0.3-20-1.7v77.1H1.1V16.6z M25.9,109.4
			c5.4,1.4,12.3,2,20.6,2c30,0,48.2-14.6,48.2-41.1c0-25.4-18-37.7-45.4-37.7c-10.8,0-19.1,0.9-23.4,2V109.4z"/>
		<path id="XMLID_138_" d="M150.7,4h25.1v202.7h-25.1V4z"/>
		<path id="XMLID_140_" d="M333.7,169.1c0,14.3,0.3,26.8,1.1,37.7h-22.3l-1.4-22.6h-0.6c-6.6,11.1-21.1,25.7-45.7,25.7
			c-21.7,0-47.7-12-47.7-60.5V68.6h25.1v76.5c0,26.3,8,44,30.8,44c16.8,0,28.5-11.7,33.1-22.8c1.4-3.7,2.3-8.3,2.3-12.8V68.6h25.1
			V169.1z"/>
		<path id="XMLID_142_" d="M494.4,68.6c-0.6,10-1.1,21.1-1.1,38v80.2c0,31.7-6.3,51.1-19.7,63.1c-13.4,12.6-32.8,16.6-50.2,16.6
			c-16.6,0-34.8-4-46-11.4l6.3-19.1c9.1,5.7,23.4,10.8,40.5,10.8c25.7,0,44.5-13.4,44.5-48.2V183h-0.6c-7.7,12.8-22.6,23.1-44,23.1
			c-34.3,0-58.8-29.1-58.8-67.4c0-46.8,30.5-73.4,62.2-73.4c24,0,37.1,12.6,43.1,24h0.6l1.1-20.8H494.4z M468.4,123.1
			c0-4.3-0.3-8-1.4-11.4c-4.6-14.6-16.8-26.6-35.1-26.6c-24,0-41.1,20.3-41.1,52.2c0,27.1,13.7,49.7,40.8,49.7
			c15.4,0,29.4-9.7,34.8-25.7c1.4-4.3,2-9.1,2-13.4V123.1z"/>
		<path id="XMLID_145_" d="M560.6,14.3v192.4h-24.8V14.3H560.6z"/>
		<path id="XMLID_147_" d="M606,106c0-14.3-0.3-26-1.1-37.4h22.3l1.4,22.8h0.6c6.9-13.1,22.8-26,45.7-26c19.1,0,48.8,11.4,48.8,58.8
			v82.5h-25.1v-79.7c0-22.3-8.3-40.8-32-40.8c-16.6,0-29.4,11.7-33.7,25.7c-1.1,3.1-1.7,7.4-1.7,11.7v83.1H606V106z"/>
		<path id="XMLID_149_" d="M767,206.7V87.7h-19.4V68.6H767V62c0-19.4,4.3-37.1,16-48.2c9.4-9.1,22-12.8,33.7-12.8
			c8.9,0,16.6,2,21.4,4l-3.4,19.4c-3.7-1.7-8.9-3.1-16-3.1c-21.4,0-26.8,18.8-26.8,40v7.4h33.4v19.1h-33.4v119.1H767z"/>
		<path id="XMLID_151_" d="M969.2,136.5c0,51.1-35.4,73.4-68.8,73.4c-37.4,0-66.2-27.4-66.2-71.1c0-46.2,30.3-73.4,68.5-73.4
			C942.3,65.4,969.2,94.3,969.2,136.5z M859.5,137.9c0,30.3,17.4,53.1,42,53.1c24,0,42-22.6,42-53.7c0-23.4-11.7-53.1-41.4-53.1
			S859.5,111.7,859.5,137.9z"/>
	</g>
	<g id="XMLID_121_">
		<path id="XMLID_122_" d="M460.7,396.3V386l13.1-12.8c31.6-30.1,45.9-46.1,46.1-64.7c0-12.6-6.1-24.2-24.6-24.2
			c-11.2,0-20.6,5.7-26.3,10.5l-5.3-11.8c8.6-7.2,20.7-12.6,35-12.6c26.6,0,37.9,18.3,37.9,36c0,22.8-16.6,41.3-42.6,66.4l-9.9,9.1
			v0.4h55.6v13.9H460.7z"/>
		<path id="XMLID_124_" d="M640.5,333.1c0,42.1-15.6,65.3-43,65.3c-24.2,0-40.5-22.6-40.9-63.6c0-41.5,17.9-64.3,43-64.3
			C625.7,270.5,640.5,293.7,640.5,333.1z M573.4,335c0,32.2,9.9,50.4,25.1,50.4c17.1,0,25.3-20,25.3-51.6c0-30.5-7.8-50.4-25.1-50.4
			C584,283.4,573.4,301.3,573.4,335z"/>
		<path id="XMLID_127_" d="M692.3,288.2h-0.4l-21.5,11.6l-3.2-12.8l27-14.5h14.3v123.7h-16.2V288.2z"/>
		<path id="XMLID_129_" d="M827.4,286.7h-47.2l-4.8,31.8c2.9-0.4,5.5-0.8,10.1-0.8c9.5,0,19,2.1,26.6,6.7
			c9.7,5.5,17.7,16.2,17.7,31.8c0,24.2-19.2,42.3-46.1,42.3c-13.5,0-24.9-3.8-30.8-7.6l4.2-12.8c5.1,3,15.2,6.9,26.5,6.9
			c15.8,0,29.3-10.3,29.3-26.8c-0.2-16-10.8-27.4-35.6-27.4c-7,0-12.6,0.8-17.1,1.3l8-59.4h59.2V286.7z"/>
		<path id="XMLID_131_" d="M852.6,386.4c0-7,4.8-12,11.4-12s11.2,4.9,11.2,12c0,6.9-4.4,12-11.4,12
			C857.1,398.4,852.6,393.3,852.6,386.4z"/>
		<path id="XMLID_133_" d="M890.6,396.3V386l13.1-12.8c31.6-30.1,45.9-46.1,46.1-64.7c0-12.6-6.1-24.2-24.6-24.2
			c-11.2,0-20.6,5.7-26.3,10.5l-5.3-11.8c8.6-7.2,20.7-12.6,35-12.6c26.6,0,37.9,18.3,37.9,36c0,22.8-16.6,41.3-42.6,66.4L914,382
			v0.4h55.6v13.9H890.6z"/>
	</g>
</g>
</svg>
